<svg xmlns="http://www.w3.org/2000/svg" 
xml:space="preserve" width="2000" height="1500" data-id="lg_78ME5n4zipOeXATSrL" data-version="1" viewBox="0 0 2000 1500">
<path fill="#5e0f27" stroke="transparent" d="M0 0h2000v1500H0z"/><g data-padding="20"><g transform="translate(-992.397 -736.71)scale(1.93137)"><rect width="495.575" height="559.35" x="383.309" y="89.924" fill="none" rx="0" ry="0" transform="translate(400.5 400.17)"/><path fill="#fff9cc" d="M862.887 918.499h89.92q13.53 0 21.27-7.25 7.73-7.26 7.73-16.92 0-9.67-7.73-16.92-7.74-7.25-21.27-7.25h-89.92q-13.53 0-21.27 7.25-7.73 7.25-7.73 16.92 0 9.66 7.73 16.92 7.74 7.25 21.27 7.25m247.5 0h89.92q13.53 0 21.27-7.25 7.73-7.26 7.73-16.92 0-9.67-7.73-16.92-7.74-7.25-21.27-7.25h-89.92q-13.53 0-21.27 7.25-7.73 7.25-7.73 16.92 0 9.66 7.73 16.92 7.74 7.25 21.27 7.25m-247.5-61.88h89.92q13.53 0 21.27-7.25 7.73-7.25 7.73-16.92t-7.73-16.92q-7.74-7.25-21.27-7.25h-89.92q-13.53 0-21.27 7.25-7.73 7.25-7.73 16.92t7.73 16.92q7.74 7.25 21.27 7.25m185.63 0h89.91q13.54 0 21.27-7.25t7.73-16.92-7.73-16.92-21.27-7.25h-89.91q-13.54 0-21.27 7.25t-7.73 16.92 7.73 16.92 21.27 7.25m-185.63-61.87h213.67q13.53 0 21.27-7.25 7.73-7.26 7.73-16.92 0-9.67-7.73-16.92-7.74-7.25-21.27-7.25h-213.67q-13.53 0-21.27 7.25-7.73 7.25-7.73 16.92 0 9.66 7.73 16.92 7.74 7.25 21.27 7.25m0-61.88h151.79q13.54 0 21.27-7.25t7.73-16.92-7.73-16.92-21.27-7.25h-151.79q-13.53 0-21.27 7.25-7.73 7.25-7.73 16.92t7.73 16.92q7.74 7.25 21.27 7.25m0-61.87h213.67q13.53 0 21.27-7.25 7.73-7.26 7.73-16.92 0-9.67-7.73-16.92-7.74-7.25-21.27-7.25h-213.67q-13.53 0-21.27 7.25-7.73 7.25-7.73 16.92 0 9.66 7.73 16.92 7.74 7.25 21.27 7.25m0-61.88h89.92q13.53 0 21.27-7.25 7.73-7.25 7.73-16.92t-7.73-16.92q-7.74-7.25-21.27-7.25h-89.92q-13.53 0-21.27 7.25-7.73 7.25-7.73 16.92t7.73 16.92q7.74 7.25 21.27 7.25m185.63 0h89.91q13.54 0 21.27-7.25t7.73-16.92-7.73-16.92-21.27-7.25h-89.91q-13.54 0-21.27 7.25t-7.73 16.92 7.73 16.92 21.27 7.25m-185.63-61.87h89.92q13.53 0 21.27-7.25 7.73-7.26 7.73-16.92 0-9.67-7.73-16.92-7.74-7.25-21.27-7.25h-89.92q-13.53 0-21.27 7.25-7.73 7.25-7.73 16.92 0 9.66 7.73 16.92 7.74 7.25 21.27 7.25m247.5 0h89.92q13.53 0 21.27-7.25 7.73-7.26 7.73-16.92 0-9.67-7.73-16.92-7.74-7.25-21.27-7.25h-89.92q-13.53 0-21.27 7.25-7.73 7.25-7.73 16.92 0 9.66 7.73 16.92 7.74 7.25 21.27 7.25"/></g><path fill="transparent" stroke="transparent" stroke-width="2.013" d="M500.894 187.5h998.212v1125H500.894z"/></g></svg>